# xmcd
#
# Track frame offsets:
# 183
# 12213
# 23053
# 36210
# 46088
# 56063
# 70445
# 87563
# 98528
# 109423
# 124213
# 135390
# 150088
# 165760
# 176125
# 190608
# 200873
# 214380
# 225763
# 238245
#
# Disc length: 3323 seconds
#
#
# Revision: 2
# Processed by: cddbd v1.5PL3 Copyright (c) Steve Scherf et al.
# Submitted via: FreeRIP 2.53 
#
DISCID=070cf914
DTITLE=Willie Nelson - 20 of The Best
DYEAR=1982
DGENRE=Country
TTITLE0=Funny How Time Slips Away
TTITLE1=Night Life
TTITLE2=My Own Peculiar Way
TTITLE3=Hello Walls
TTITLE4=Mr. Record Man
TTITLE5=Family Bible
TTITLE6=Me and Paul
TTITLE7=Good Times
TTITLE8=She's Still Gone
TTITLE9=Little Things
TTITLE10=Pretty Paper
TTITLE11=Bloody Merry Morning
TTITLE12=What Can You Do To Me Now?
TTITLE13=December Day
TTITLE14=Yesterday's Wine
TTITLE15=To Make A Long Story Short (She's Gone)
TTITLE16=Good-Hearted Woman
TTITLE17=She's Not For You
TTITLE18=It Should Be Easier Now
TTITLE19=Phases and Stages (Circles, Cycles and Scenes)
EXTD=CDRCA (WM) 4040 - BMG Records Africa - RCA
EXTT0=
EXTT1=
EXTT2=
EXTT3=
EXTT4=
EXTT5=
EXTT6=
EXTT7=
EXTT8=
EXTT9=
EXTT10=
EXTT11=
EXTT12=
EXTT13=
EXTT14=
EXTT15=
EXTT16=
EXTT17=
EXTT18=
EXTT19=
PLAYORDER=
